<?xml version="1.0" encoding="utf-8"?>
<!-- Generator: Adobe Illustrator 26.1.0, SVG Export Plug-In . SVG Version: 6.00 Build 0)  -->
<svg version="1.1" id="Layer_1" xmlns="http://www.w3.org/2000/svg" xmlns:xlink="http://www.w3.org/1999/xlink" x="0px" y="0px"
	 viewBox="0 0 53.1 53.2" style="enable-background:new 0 0 53.1 53.2;" xml:space="preserve">
<style type="text/css">
	.st0{fill:#FF0000;}
</style>
<g>
	<path d="M48.8,26.6c1.4-1.4,2.4-2.9,3.2-4.7c0.8-1.8,1.1-3.7,1.1-5.8c0-2.2-0.4-4.3-1.3-6.2c-0.9-2-2.1-3.7-3.6-5.1
		c-1.5-1.5-3.3-2.6-5.3-3.4c-2-0.8-4.2-1.3-6.6-1.3H5.7c-1.5,0-2.8,0.5-4,1.6C0.6,2.7,0,4.2,0,6v41.3c0,1.8,0.6,3.2,1.7,4.3
		c1.1,1.1,2.5,1.6,4,1.6h30.5c2.3,0,4.5-0.4,6.6-1.3c2-0.8,3.8-2,5.3-3.4c1.5-1.5,2.7-3.2,3.6-5.1c0.9-2,1.3-4,1.3-6.2
		c0-2-0.4-4-1.1-5.8C51.2,29.6,50.1,28,48.8,26.6z M37,31.8c1.5,0,2.8,0.5,3.8,1.6c1,1,1.6,2.3,1.6,3.8c0,1.5-0.5,2.8-1.6,3.9
		c-1,1.1-2.3,1.6-3.8,1.6H13.9c-1,0-1.8-0.2-2.4-0.5c-0.5-0.3-0.8-1-0.8-2V13c0-1,0.3-1.7,0.8-2c0.5-0.3,1.3-0.5,2.4-0.5H37
		c1.5,0,2.8,0.5,3.8,1.6c1,1.1,1.6,2.4,1.6,3.9c0,1.5-0.5,2.8-1.6,3.8c-1,1-2.3,1.6-3.8,1.6h-0.8v10.3H37z"/>
	<path class="st0" d="M20.5,26.6c0-1.5,0.5-2.8,1.6-3.8c1.1-1,2.4-1.5,4-1.5c1.6,0,2.9,0.5,4,1.5c1.1,1,1.6,2.3,1.6,3.8
		c0,1.5-0.5,2.8-1.6,3.8c-1.1,1-2.4,1.5-4,1.5c-1.6,0-2.9-0.5-4-1.5C21,29.4,20.5,28.1,20.5,26.6z"/>
</g>
</svg>
